<?xml version="1.0" encoding="UTF-8" standalone="no"?>
<svg
   xmlns:dc="http://purl.org/dc/elements/1.1/"
   xmlns:cc="http://creativecommons.org/ns#"
   xmlns:rdf="http://www.w3.org/1999/02/22-rdf-syntax-ns#"
   xmlns:svg="http://www.w3.org/2000/svg"
   xmlns="http://www.w3.org/2000/svg"
   xmlns:sodipodi="http://sodipodi.sourceforge.net/DTD/sodipodi-0.dtd"
   xmlns:inkscape="http://www.inkscape.org/namespaces/inkscape"
   id="svg22048"
   xml:space="preserve"
   enable-background="new 0 0 120 40"
   viewBox="0 0 80 40"
   height="40"
   width="80"
   y="0px"
   x="0px"
   version="1.1"
   inkscape:version="0.91 r13725"
   sodipodi:docname="logo.svg"><sodipodi:namedview
     pagecolor="#ffffff"
     bordercolor="#666666"
     borderopacity="1"
     objecttolerance="10"
     gridtolerance="10"
     guidetolerance="10"
     inkscape:pageopacity="0"
     inkscape:pageshadow="2"
     inkscape:window-width="1276"
     inkscape:window-height="756"
     id="namedview54"
     showgrid="false"
     inkscape:zoom="3.875"
     inkscape:cx="-1.9354839"
     inkscape:cy="20"
     inkscape:window-x="4"
     inkscape:window-y="0"
     inkscape:window-maximized="1"
     inkscape:current-layer="g22188" /><metadata
     id="metadata22130"><rdf:RDF><cc:Work
         rdf:about=""><dc:format>image/svg+xml</dc:format><dc:type
           rdf:resource="http://purl.org/dc/dcmitype/StillImage" /><dc:title /></cc:Work></rdf:RDF></metadata><defs
     id="defs22128"><marker
       style="overflow:visible"
       id="Arrow1Lstart"
       refX="0.0"
       refY="0.0"
       orient="auto"><path
         transform="scale(0.8) translate(12.5,0)"
         style="fill-rule:evenodd;stroke:#ff4500;stroke-width:1pt;stroke-opacity:1;fill:#ff4500;fill-opacity:1"
         d="M 0.0,0.0 L 5.0,-5.0 L -12.5,0.0 L 5.0,5.0 L 0.0,0.0 z "
         id="path4200" /></marker></defs><g
     id="Layer_3" /><g
     transform="matrix(1.0000151,0,0,0.99701161,-9.1227522e-4,1.0788683)"
     id="g22218"><g
       transform="matrix(0.66376906,0,0,0.66376906,12.190996,-8.6828459)"
       id="g5187"><g
         id="g22100"
         transform="matrix(0.70244654,0,0,0.70244654,13.709749,4.5553607)"><path
           d="m 36.688002,28.017729 c 0,-0.444 0.133002,-0.797 0.401005,-1.059 0.268003,-0.26 0.592007,-0.392 0.973012,-0.392 0.389005,0 0.721009,0.128 0.994013,0.383 0.274003,0.259 0.411005,0.612 0.411005,1.067 l 0,1.440999 0.063,0 c 0.421005,-0.735999 0.973012,-1.400999 1.660021,-1.995999 0.687009,-0.594 1.407018,-0.907 2.159027,-0.938 0.422006,0 0.794011,0.141 1.120015,0.416 0.326004,0.277 0.491006,0.62 0.491006,1.032 0,0.481 -0.167002,0.835 -0.502006,1.062 -0.334005,0.227999 -0.819011,0.422999 -1.456019,0.586999 -0.637008,0.166 -1.049013,0.299 -1.238016,0.403 -1.531019,0.83 -2.296029,2.251 -2.296029,4.261999 l 0,8.275999 c 0,0.458999 -0.128001,0.814999 -0.387005,1.066999 -0.258003,0.253 -0.577007,0.379 -0.957012,0.379 -0.400005,0 -0.740009,-0.132 -1.018013,-0.397 -0.279003,-0.267 -0.417005,-0.64 -0.417005,-1.114999 l 0,-14.477997 z"
           id="path22102"
           style="stroke:#000000;stroke-width:0.59850001" /><path
           d="m 45.666116,35.113727 c 0.062,-1.459999 0.398005,-2.842999 1.004013,-4.153999 0.607007,-1.309 1.473018,-2.367999 2.596033,-3.183999 1.123014,-0.813 2.444031,-1.229 3.96205,-1.251 1.474019,0 2.782035,0.397 3.92705,1.192 1.143014,0.795 2.027026,1.846999 2.649034,3.156999 0.623007,1.312 0.933011,2.68 0.933011,4.108999 0,0.916 -0.523006,1.375 -1.56802,1.375 l -10.659135,0 c 0.021,1.137 0.263003,2.097999 0.729009,2.878999 0.465006,0.782 1.087014,1.366 1.869024,1.755 0.78201,0.387 1.646021,0.579 2.598033,0.579 1.667021,0 3.199041,-0.589 4.593058,-1.769 0.480007,-0.347 0.833011,-0.519 1.058014,-0.519 0.314004,0 0.558007,0.116 0.733009,0.35 0.176002,0.233 0.262004,0.516 0.262004,0.846 0,0.357 -0.138002,0.7 -0.414006,1.029 -0.628008,0.667 -1.520019,1.25 -2.672034,1.749999 -1.153014,0.5 -2.39403,0.75 -3.723047,0.75 -1.392018,0 -2.602033,-0.261 -3.628046,-0.787 -1.028013,-0.522999 -1.855024,-1.221999 -2.483032,-2.087999 -0.628008,-0.867 -1.086013,-1.805 -1.374017,-2.812 -0.288004,-1.003999 -0.439006,-2.020999 -0.455006,-3.050999 0.027,-0.052 0.043,-0.091 0.051,-0.113 0.008,-0.024 0.012,-0.036 0.012,-0.043 z m 2.844036,-0.894 9.40412,0 c -0.03,-1.568999 -0.449006,-2.825999 -1.253016,-3.780999 -0.805011,-0.953 -1.907025,-1.445999 -3.308042,-1.477999 -1.426019,0 -2.573033,0.462999 -3.444044,1.382999 -0.869011,0.922 -1.336017,2.215 -1.399018,3.875999 z"
           id="path22104"
           style="stroke:#000000;stroke-width:0.59850001" /><path
           d="m 74.594483,28.828729 0,-8.415999 c 0,-0.439999 0.137002,-0.783999 0.409006,-1.034999 0.274003,-0.252 0.599007,-0.377 0.969012,-0.377 0.413005,0 0.75501,0.125 1.030013,0.376 0.274004,0.251 0.412005,0.616 0.412005,1.095999 l 0,22.086996 c 0,0.454999 -0.142002,0.808999 -0.424005,1.064999 -0.281004,0.256 -0.622008,0.383 -1.019013,0.383 -0.354005,0 -0.674009,-0.127 -0.956012,-0.382 -0.281004,-0.255 -0.422006,-0.589 -0.422006,-0.998999 l 0,-0.922 -0.065,0 c -0.303004,0.615 -0.798011,1.141999 -1.488019,1.585999 -0.688009,0.442 -1.620021,0.681 -2.793036,0.717 -1.505019,0 -2.828036,-0.367 -3.96305,-1.104 -1.137015,-0.733999 -2.017026,-1.759999 -2.645034,-3.075999 -0.624008,-1.314 -0.948012,-2.806999 -0.975012,-4.478999 0,-1.195 0.174002,-2.332999 0.524007,-3.412999 0.351004,-1.082 0.84601,-2.024 1.483018,-2.832999 0.639009,-0.805 1.404018,-1.437 2.29603,-1.893 0.892011,-0.457 1.869023,-0.687 2.933037,-0.687 1.917024,0 3.462044,0.769 4.627059,2.304 l 0.067,0 z m -9.108115,6.387998 c 0,1.734 0.374005,3.212999 1.124014,4.435999 0.74701,1.223 1.865024,1.863 3.348043,1.919 1.183015,0 2.140027,-0.306 2.876036,-0.921 0.730009,-0.612 1.255016,-1.393 1.56702,-2.338 0.316004,-0.944999 0.484006,-1.955999 0.513007,-3.031999 0,-1.239 -0.200003,-2.340999 -0.603008,-3.304999 -0.400005,-0.963 -0.959012,-1.708 -1.672021,-2.23 -0.716009,-0.522 -1.52202,-0.783999 -2.425031,-0.783999 -1.063014,0 -1.945025,0.313999 -2.650034,0.935999 -0.704009,0.625 -1.221015,1.411 -1.54902,2.357 -0.326004,0.945 -0.501006,1.932999 -0.529006,2.961999 z"
           id="path22106"
           style="stroke:#000000;stroke-width:0.59850001" /><path
           d="m 92.45171,28.828729 0,-8.415999 c 0,-0.439999 0.138002,-0.783999 0.413006,-1.034999 0.274003,-0.252 0.596007,-0.377 0.967012,-0.377 0.412005,0 0.75801,0.125 1.030013,0.376 0.275003,0.251 0.411005,0.616 0.411005,1.095999 l 0,22.086996 c 0,0.454999 -0.141002,0.808999 -0.422005,1.064999 -0.282004,0.256 -0.624008,0.383 -1.020013,0.383 -0.354005,0 -0.674009,-0.127 -0.955012,-0.382 -0.282004,-0.255 -0.425006,-0.589 -0.425006,-0.998999 l 0,-0.922 -0.062,0 c -0.304004,0.615 -0.799011,1.141999 -1.488019,1.585999 -0.688009,0.442 -1.619021,0.681 -2.793036,0.717 -1.506019,0 -2.827036,-0.367 -3.96405,-1.104 -1.138015,-0.733999 -2.018026,-1.759999 -2.643034,-3.075999 -0.624008,-1.314 -0.950012,-2.806999 -0.976012,-4.478999 0,-1.195 0.176002,-2.332999 0.525006,-3.412999 0.351005,-1.082 0.844011,-2.024 1.481019,-2.832999 0.640008,-0.805 1.404018,-1.437 2.296029,-1.893 0.892012,-0.457 1.869024,-0.687 2.932038,-0.687 1.918024,0 3.462044,0.769 4.629059,2.304 l 0.064,0 z m -9.104115,6.387998 c 0,1.734 0.373004,3.212999 1.123014,4.435999 0.749009,1.223 1.865024,1.863 3.349042,1.919 1.183016,0 2.142028,-0.306 2.872037,-0.921 0.735009,-0.612 1.258016,-1.393 1.57102,-2.338 0.314004,-0.944999 0.485006,-1.955999 0.512006,-3.031999 0,-1.239 -0.200002,-2.340999 -0.601007,-3.304999 -0.400005,-0.963 -0.959012,-1.708 -1.673021,-2.23 -0.71601,-0.522 -1.52302,-0.783999 -2.424031,-0.783999 -1.064014,0 -1.948025,0.313999 -2.652034,0.935999 -0.705009,0.625 -1.219015,1.411 -1.54702,2.357 -0.328004,0.945 -0.504006,1.932999 -0.530006,2.961999 z"
           id="path22108"
           style="stroke:#000000;stroke-width:0.59850001" /><path
           d="m 107.7479,29.132728 -1.24501,0 c -0.39901,0 -0.72101,-0.113999 -0.96301,-0.340999 -0.24001,-0.228 -0.37901,-0.509 -0.42101,-0.843 0.083,-0.836 0.54501,-1.254 1.38402,-1.254 l 1.24501,0 0,-3.814999 c 0,-0.416 0.13401,-0.739 0.40001,-0.969 0.267,-0.229 0.59101,-0.343 0.97801,-0.343 0.41001,0 0.75501,0.116 1.03102,0.348 0.274,0.232 0.415,0.577 0.415,1.035 l 0,3.743999 1.24302,0 c 0.429,0 0.75501,0.115 0.97901,0.345 0.225,0.229 0.338,0.531 0.338,0.909 0,0.319 -0.112,0.596 -0.329,0.83 -0.221,0.234 -0.50401,0.353999 -0.85401,0.353999 l -1.37702,0 0,13.487998 c 0,0.428999 -0.149,0.767999 -0.44301,1.016999 -0.293,0.248 -0.65,0.371 -1.06401,0.371 -0.37,0 -0.68601,-0.123 -0.93601,-0.371 -0.252,-0.249 -0.38101,-0.608 -0.38101,-1.077999 l 0,-13.426998 z"
           id="path22110"
           style="stroke:#000000;stroke-width:0.59850001" /><text
           transform="scale(0.98830247,1.011836)"
           id="text5199"
           y="85.119331"
           x="33.121506"
           style="font-style:normal;font-weight:normal;font-size:45.12228775px;line-height:125%;font-family:sans-serif;letter-spacing:0px;word-spacing:0px;fill:#ff4500;fill-opacity:1;stroke:#ff4500;stroke-width:0.9817943px;stroke-linecap:butt;stroke-linejoin:miter;stroke-opacity:1"
           xml:space="preserve"><tspan
             style="font-style:normal;font-variant:normal;font-weight:normal;font-stretch:normal;font-family:'Hannotate SC';-inkscape-font-specification:'Hannotate SC';fill:#ff4500;fill-opacity:1;stroke:#ff4500;stroke-width:0.9817943px;stroke-opacity:1"
             y="85.119331"
             x="33.121506"
             id="tspan5201">Plus</tspan></text>
</g><ellipse
         ry="1.6219487"
         rx="1.6219697"
         cx="84.434715"
         cy="19.679659"
         id="circle22112"
         style="fill:#ffffff;stroke:#000000;stroke-width:1.12391448" /><line
         x1="84.437523"
         y1="23.853598"
         x2="84.437523"
         y2="34.244186"
         id="line22114"
         style="fill:none;stroke:#000000;stroke-width:2.36036086;stroke-linecap:round" /></g></g><g
     transform="translate(2,0)"
     id="g22188"><ellipse
       style="fill:#ffffff;stroke:#000000;stroke-width:1.10000002"
       id="ellipse22054"
       ry="5.3239999"
       rx="4.4120002"
       cy="28.597"
       cx="21.348" /><g
       id="g22056"><g
         id="g22058"><path
           style="fill:#ffffff"
           id="path22060"
           d="m 14.406,39.464 c 0.063,-0.197 0.108,-0.401 0.108,-0.615 0,-1.36 -1.361,-2.464 -3.04,-2.464 -1.679,0 -3.039,1.104 -3.039,2.464 0,0.214 0.044,0.418 0.108,0.615 l 5.863,0 z" /></g><g
         id="g22062"><path
           style="fill:none;stroke:#000000;stroke-width:1.10000002;stroke-linecap:round;stroke-linejoin:round"
           id="path22064"
           d="m 14.406,39.464 c 0.063,-0.197 0.108,-0.401 0.108,-0.615 0,-1.36 -1.361,-2.464 -3.04,-2.464 -1.679,0 -3.039,1.104 -3.039,2.464 0,0.214 0.044,0.418 0.108,0.615 l 5.863,0 z" /></g></g><g
       id="g22066"><g
         id="g22068"><path
           style="fill:#ffffff"
           id="path22070"
           d="m 25.052,39.464 c 0.063,-0.197 0.107,-0.401 0.107,-0.615 0,-1.36 -1.361,-2.464 -3.041,-2.464 -1.679,0 -3.039,1.104 -3.039,2.464 0,0.214 0.043,0.418 0.107,0.615 l 5.866,0 z" /></g><g
         id="g22072"><path
           style="fill:none;stroke:#000000;stroke-width:1.10000002;stroke-linecap:round;stroke-linejoin:round"
           id="path22074"
           d="m 25.052,39.464 c 0.063,-0.197 0.107,-0.401 0.107,-0.615 0,-1.36 -1.361,-2.464 -3.041,-2.464 -1.679,0 -3.039,1.104 -3.039,2.464 0,0.214 0.043,0.418 0.107,0.615 l 5.866,0 z" /></g></g><circle
       style="fill:#ffffff;stroke:#000000;stroke-width:1.10000002"
       id="circle22076"
       r="2.7019999"
       cy="12.014"
       cx="5.7870002" /><circle
       style="fill:#ffffff;stroke:#000000;stroke-width:1.10000002"
       id="circle22078"
       r="2.7019999"
       cy="12.014"
       cx="27.889" /><path
       style="fill:none;stroke:#000000;stroke-width:1.10000002;stroke-linecap:round;stroke-linejoin:round"
       id="path22080"
       d="m 24.329,2.53 c 0,0 0,0 -5.404,-1.272 l -1.986,6.278" /><ellipse
       style="fill:#ffffff;stroke:#000000;stroke-width:1.10000002"
       id="ellipse22082"
       ry="5.3239999"
       rx="4.4109998"
       cy="28.597"
       cx="12.25" /><circle
       style="fill:#ffffff;fill-opacity:1;stroke:#000000;stroke-width:1.10000002"
       id="circle22084"
       r="2.1300001"
       cy="2.967"
       cx="26.534" /><g
       id="g22086"><g
         id="g22088"><path
           style="fill:#ffffff"
           id="path22090"
           d="m 15.284,39.467 2.99,0 c 2.656,-1.382 4.624,-6.34 4.624,-12.261 0,-6.99 -2.74,-12.656 -6.119,-12.656 -3.38,0 -6.119,5.666 -6.119,12.656 0,5.921 1.968,10.879 4.624,12.261 z" /></g><g
         id="g22092"><path
           style="fill:none;stroke:#000000;stroke-width:1.10000002"
           id="path22094"
           d="m 15.284,39.467 2.99,0 c 2.656,-1.382 4.624,-6.34 4.624,-12.261 0,-6.99 -2.74,-12.656 -6.119,-12.656 -3.38,0 -6.119,5.666 -6.119,12.656 0,5.921 1.968,10.879 4.624,12.261 z" /></g></g><ellipse
       style="fill:#ffffff;stroke:#000000;stroke-width:1.10000002"
       id="ellipse22096"
       ry="7.9860001"
       rx="12.239"
       cy="15.73"
       cx="16.778999" /><line
       style="fill:none;stroke:#000000;stroke-width:1.10000002;stroke-linecap:round;stroke-linejoin:round"
       id="line22098"
       y2="39.464001"
       x2="20.156"
       y1="39.464001"
       x1="13.56" /><g
       transform="matrix(0.9999602,0,0,1.0000012,4.2039801e-4,1.7719195)"
       id="g22116"><path
         id="circle22118"
         d="m 12.53125,13.75931 c -1.087009,0 -1.96875,0.88174 -1.96875,1.96875 0,1.087009 0.881741,2 1.96875,2 1.087009,0 1.96875,-0.912991 1.96875,-2 0,-1.08701 -0.881741,-1.96875 -1.96875,-1.96875 z"
         style="fill:#ff4500;stroke:none;stroke-width:1.10000002" /><path
         id="circle22120"
         d="m 21.15625,13.75931 c -1.087009,0 -1.96875,0.88174 -1.96875,1.96875 0,1.087009 0.881741,2 1.96875,2 1.087009,0 1.96875,-0.912991 1.96875,-2 0,-1.08701 -0.881741,-1.96875 -1.96875,-1.96875 z"
         style="fill:#ff4500;stroke:none;stroke-width:1.10000002" /><path
         style="fill:none;stroke:#000000;stroke-width:1.10000002;stroke-linecap:round"
         id="path22122"
         d="m 12.61,19.207 c 1.066,1.066 2.786,1.271 4.212,1.271" /><path
         style="fill:none;stroke:#000000;stroke-width:1.10000002;stroke-linecap:round"
         id="path22124"
         d="m 21.065,19.207 c -1.067,1.066 -2.785,1.271 -4.212,1.271" /></g><g
       id="g4756"><g
         id="g4633"
         style="stroke:#ff4500;stroke-opacity:1"
         transform="translate(-0.46212778,-0.43200008)"><path
           d="m 17.228751,27.669453 0.02478,6.50749"
           id="path4629"
           style="fill:none;stroke:#ff4500;stroke-width:2.47486567;stroke-linecap:round;stroke-linejoin:round;stroke-miterlimit:4;stroke-dasharray:none;stroke-dashoffset:0;stroke-opacity:1" /></g><g
         transform="matrix(0,1,-1,0,47.702211,13.250057)"
         style="stroke:#ff4500;stroke-opacity:1"
         id="g4752"><path
           style="fill:none;stroke:#ff4500;stroke-width:2.47486567;stroke-linecap:round;stroke-linejoin:round;stroke-miterlimit:4;stroke-dasharray:none;stroke-dashoffset:0;stroke-opacity:1"
           id="path4754"
           d="m 17.228751,27.669453 0.02478,6.50749" /></g></g></g></svg>